<svg xmlns="http://www.w3.org/2000/svg" viewBox="0 0 32 32"><defs><style>.cls-1{fill:#d1e6e9;}.cls-2{fill:#30acc2;}.cls-3{fill:#a1d8df;}.cls-4{fill:#68c7d3;}</style></defs><title>Cart</title><g id="Cart"><polygon class="cls-1" points="7 5 31 5 29 19 9 19 7 5"/><circle class="cls-2" cx="11" cy="28" r="3"/><circle class="cls-2" cx="25" cy="28" r="3"/><path class="cls-3" d="M21.38,16.78,19,14.88l-2.38,1.9-1.24-1.56,2-1.65C15,11,15.83,7,19,7s4,4,1.57,6.57l2.05,1.65ZM19,9c-1.46,0-1.2,2.18,0,3.31C20.19,11.2,20.47,9,19,9Z"/><path class="cls-3" d="M12,28a1,1,0,0,1-2,0A1,1,0,0,1,12,28Z"/><path class="cls-3" d="M26,28a1,1,0,0,1-2,0A1,1,0,0,1,26,28Z"/><polygon class="cls-4" points="28 23 8.14 23 5.14 3 1 3 1 1 6.86 1 9.86 21 28 21 28 23"/></g></svg>